<?xml version="1.0" encoding="utf-8"?>
<!-- Generator: Adobe Illustrator 21.0.2, SVG Export Plug-In . SVG Version: 6.00 Build 0)  -->
<!DOCTYPE svg PUBLIC "-//W3C//DTD SVG 1.1//EN" "http://www.w3.org/Graphics/SVG/1.1/DTD/svg11.dtd">
<svg version="1.1" id="Layer_1" xmlns="http://www.w3.org/2000/svg" xmlns:xlink="http://www.w3.org/1999/xlink" x="0px" y="0px"
	 width="512px" height="239.4px" viewBox="0 0 512 239.4" style="enable-background:new 0 0 512 239.4;" xml:space="preserve">
<style type="text/css">
	.st0{fill:#4B4B4D;}
</style>
<g>
	<g>
		<path class="st0" d="M508.3,125.1c-8.2-20.5-17.8-31.6-29.3-34c-1.5-0.3-3-0.4-4.3-0.4V55.6c0-30.6-24.9-55.6-55.6-55.6H303.6
			h-76.9h-8.6h-76.9h-8.6H68.5H55.7c-2.9,0-5.3,1.5-6.8,3.6c-21,8-35.9,28.2-35.9,51.9v44.8c-5.3,9.7-19.8,39.6-9.2,57.9
			c1.8,3.1,4.8,6.5,9.4,9c2.4,30.6,27.9,56.6,58.8,59l171.2,13.2c0.2,0,0.4,0,0.7,0s0.4,0,0.7,0l171.2-13.2
			c31.5-2.4,57.2-29.3,58.9-60.6c11.2,0.9,24.4-0.2,31.9-8.6C513.2,149.6,513.8,138.8,508.3,125.1z M30.1,55.6
			c0-21.2,17.3-38.5,38.5-38.5h64.1c14.2,0,25.7,11.5,25.7,25.7V77c0,4.7,3.8,8.6,8.6,8.6s8.6-3.8,8.6-8.6V42.8
			c0-9.7-3.3-18.5-8.8-25.7h51.5c14.2,0,25.7,11.5,25.7,25.7V77c0,4.7,3.8,8.6,8.6,8.6c4.7,0,8.6-3.8,8.6-8.6V42.8
			c0-9.7-3.3-18.5-8.8-25.7h51.5c14.2,0,25.7,11.5,25.7,25.7V77c0,4.7,3.8,8.6,8.6,8.6s8.6-3.8,8.6-8.6V42.8
			c0-9.7-3.3-18.5-8.8-25.7h81.5c21.2,0,38.5,17.3,38.5,38.5v38.5H30.1V55.6z M414.4,209.2l-170.5,13.1L73.3,209.2
			c-21-1.6-38.5-18.1-42.4-38.3c0.6-0.1,1.3-0.1,1.9-0.3l46-15.3c17.9,18.7,55.8,42.8,96.3,25.4c11.1,6.1,43.1,21.9,74.1,21.9
			c17.8,0,35.3-5.2,48.4-20.4c15.8,8.3,56,26.8,86.7,17.9c10.1-2.9,18.2-8.4,24.4-16.4c6.9,4.4,17.3,9,28.4,6.4
			c6.8-1.6,12.7-5.5,17.7-11.7C448.4,195,432.7,207.8,414.4,209.2z M493.7,145.6c-4.5,5-22.5,3.3-33.8,0.1c-4.4-1.2-9,1.2-10.5,5.5
			c-3,9-8.3,20.1-16.4,22.1c-8.1,1.9-17.7-5.4-20.7-8.3c-1.9-1.9-4.7-2.8-7.4-2.4c-2.7,0.4-5,2.2-6.3,4.6
			c-4.2,8.5-10.5,13.8-19.2,16.3c-31,9.1-79.4-19.6-79.9-19.9c-3.9-2.3-9-1.2-11.5,2.6c-29.3,43.9-107.4-2.1-108.2-2.6
			c-2.5-1.5-5.6-1.6-8.2-0.3c-44.5,22.3-82.1-21.6-83.7-23.5c-2.3-2.7-5.9-3.7-9.3-2.6l-49.9,16.6c-7.9-0.3-9.6-3.2-10.2-4.2
			c-4.4-7.5,1.6-25.7,8.1-38.5h439.5c1.1,0,2.2-0.2,3.3-0.7c1-0.4,2-1.1,2.8-1.8c0,0,1.5-1.2,3.4-0.8c1.9,0.4,8.7,3.2,16.8,23.6
			C495.2,138.3,495.6,143.5,493.7,145.6z"/>
	</g>
</g>
</svg>
