<?xml version="1.0" encoding="utf-8"?>
<!DOCTYPE svg PUBLIC "-//W3C//DTD SVG 1.1//EN" "http://www.w3.org/Graphics/SVG/1.1/DTD/svg11.dtd">
<svg width="155px" height="72px" viewBox="1065 1035 155 72" version="1.1" xmlns="http://www.w3.org/2000/svg" xmlns:xlink="http://www.w3.org/1999/xlink">
    <g id="wenzel" stroke="none" fill="none" transform="translate(1066.000000, 1035.000000)" stroke-width="1" fill-rule="evenodd">
        <g id="sandwich" fill="#4B4B4D">
            <path d="M152.887711,37.6122 C150.420102,31.4619 147.541625,28.1289 144.086852,27.4212 C143.627859,27.327 143.19684,27.2964 142.783266,27.2973 L142.783266,16.7607 C142.783266,7.5669 135.285992,0.0864 126.070656,0.0864 L91.3280156,0.0864 L68.1967344,0.0864 L65.6085117,0.0864 L42.4772305,0.0864 L39.8890078,0.0864 L20.6110352,0.0864 L16.7580273,0.0864 C15.8983945,0.0864 15.1744141,0.5346 14.7076016,1.1808 C8.40112109,3.5679 3.89842578,9.6423 3.89842578,16.7607 L3.89842578,30.2079 C2.31902344,33.1104 -2.04952344,42.1008 1.13304297,47.5725 C1.67294531,48.4995 2.56355859,49.512 3.97061328,50.2653 C4.70331641,59.4495 12.3479727,67.2423 21.6571523,67.9557 L73.1436836,71.9064 C73.2089531,71.9115 73.2754258,71.9139 73.3406953,71.9139 C73.4059648,71.9139 73.4724375,71.9115 73.537707,71.9064 L125.024238,67.9557 C134.49975,67.2294 142.243664,59.1663 142.735441,49.7679 C146.111711,50.0391 150.060969,49.6998 152.322242,47.2008 C154.350711,44.961 154.540504,41.7342 152.887711,37.6122 Z M9.04238672,16.7604 C9.04238672,10.3947 14.2314648,5.2167 20.6110352,5.2167 L39.8893086,5.2167 C44.1528828,5.2167 47.6214922,8.6688 47.6214922,12.9126 L47.6214922,23.1735 C47.6214922,24.5901 48.7731836,25.7388 50.1934727,25.7388 C51.6137617,25.7388 52.7654531,24.5901 52.7654531,23.1735 L52.7654531,12.9126 C52.7654531,10.0143 51.7590391,7.3671 50.1248945,5.2167 L65.6088125,5.2167 C69.8723867,5.2167 73.3409961,8.6688 73.3409961,12.9126 L73.3409961,23.1735 C73.3409961,24.5901 74.4926875,25.7388 75.9129766,25.7388 C77.3332656,25.7388 78.484957,24.5901 78.484957,23.1735 L78.484957,12.9126 C78.484957,10.0143 77.478543,7.3671 75.8443984,5.2167 L91.3283164,5.2167 C95.5918906,5.2167 99.0605,8.6688 99.0605,12.9126 L99.0605,23.1735 C99.0605,24.5901 100.212191,25.7388 101.63248,25.7388 C103.05277,25.7388 104.204461,24.5901 104.204461,23.1735 L104.204461,12.9126 C104.204461,10.0143 103.198047,7.3671 101.563902,5.2167 L126.070957,5.2167 C132.450527,5.2167 137.639605,10.3947 137.639605,16.7604 L137.639605,28.3041 L9.04238672,28.3041 L9.04238672,16.7604 Z M124.630215,62.8401 L73.3406953,66.7758 L22.0514766,62.8401 C15.7347695,62.3556 10.4662852,57.4215 9.29534375,51.351 C9.48423438,51.3318 9.67523047,51.3207 9.856,51.2601 L23.6877266,46.6608 C29.0816367,52.2699 40.4604922,59.4948 52.6472461,54.2739 C55.9976484,56.0988 65.5973828,60.84 74.9231055,60.8388 C80.2728008,60.8388 85.5349688,59.2782 89.4718945,54.7125 C94.2263437,57.2088 106.320156,62.7516 115.549328,60.0759 C118.574586,59.1966 121.02866,57.5457 122.876961,55.152 C124.945434,56.4798 128.081078,57.8625 131.424262,57.0759 C133.46025,56.5968 135.235461,55.4133 136.741473,53.5515 C134.86159,58.5723 130.159176,62.4162 124.630215,62.8401 Z M148.504727,43.7622 C147.140984,45.2727 141.724516,44.7519 138.343734,43.7934 C137.016387,43.4214 135.634898,44.1504 135.199066,45.4494 C134.297324,48.15 132.706191,51.4917 130.256027,52.0791 C127.81609,52.6629 124.930094,50.4657 124.025945,49.5777 C123.440625,48.9939 122.609266,48.7272 121.795652,48.8586 C120.979332,48.9915 120.277309,49.506 119.906746,50.244 C118.635945,52.7793 116.741926,54.3837 114.117309,55.1478 C104.787676,57.8673 90.2400898,49.2783 90.0945117,49.1907 C88.9178555,48.4881 87.3931953,48.8313 86.6322187,49.9686 C77.825043,63.1395 54.3222969,49.3311 54.0861836,49.1907 C53.3327266,48.7434 52.4033125,48.7059 51.6146641,49.0968 C38.2211758,55.7754 26.9226289,42.6123 26.4464922,42.0498 C25.7694336,41.2443 24.6655664,40.935 23.6597539,41.262 L8.64625781,46.2534 C6.26407031,46.167 5.75544922,45.2952 5.58340234,44.9982 C4.26658203,42.7395 6.06164453,37.2942 8.01702344,33.4344 L140.210684,33.4344 C140.545754,33.4344 140.87902,33.3657 141.193336,33.2364 C141.508254,33.1062 141.792793,32.919 142.029508,32.6823 C142.036125,32.679 142.48459,32.3358 143.052766,32.4459 C143.62034,32.5623 145.663547,33.4167 148.110102,39.5178 C148.936949,41.5776 149.081324,43.1247 148.504727,43.7622 Z" id="Shape" fill-rule="nonzero"></path>
        </g>
    </g>
</svg>